HIERARCHY
ROOT Hips
{
 OFFSET 0.000000 0.000000 0.000000
 CHANNELS 6 Xposition Yposition Zposition Yrotation Xrotation Zrotation
 JOINT Chest
 {
  OFFSET 0.000000 9.585900 0.002600
  CHANNELS 3 Yrotation Xrotation Zrotation
  JOINT Chest2
  {
   OFFSET 0.000000 9.601200 -0.005300
   CHANNELS 3 Yrotation Xrotation Zrotation
   JOINT Chest3
   {
    OFFSET 0.000000 9.561800 0.000000
    CHANNELS 3 Yrotation Xrotation Zrotation
    JOINT Chest4
    {
     OFFSET 0.000000 9.552100 0.000000
     CHANNELS 3 Yrotation Xrotation Zrotation
     JOINT Neck
     {
      OFFSET 0.000000 14.453000 0.000000
      CHANNELS 3 Yrotation Xrotation Zrotation
      JOINT Head
      {
       OFFSET 0.000000 8.936500 -0.011300
       CHANNELS 3 Yrotation Xrotation Zrotation
       End Site
       {
        OFFSET 0.000000 17.073600 -0.006000
       }
      }
     }
     JOINT RightCollar
     {
      OFFSET -2.921100 9.558500 0.000000
      CHANNELS 3 Yrotation Xrotation Zrotation
      JOINT RightShoulder
      {
       OFFSET -13.519700 0.000000 0.000000
       CHANNELS 3 Yrotation Xrotation Zrotation
       JOINT RightElbow
       {
        OFFSET 0.000000 -29.696600 0.000000
        CHANNELS 3 Yrotation Xrotation Zrotation
        JOINT RightWrist
        {
         OFFSET 0.000000 -24.004700 0.000000
         CHANNELS 3 Yrotation Xrotation Zrotation
         End Site
         {
          OFFSET 0.000000 -17.728500 0.000000
         }
        }
       }
      }
     }
     JOINT LeftCollar
     {
      OFFSET 2.921100 9.558500 0.000000
      CHANNELS 3 Yrotation Xrotation Zrotation
      JOINT LeftShoulder
      {
       OFFSET 13.519700 0.000000 0.000000
       CHANNELS 3 Yrotation Xrotation Zrotation
       JOINT LeftElbow
       {
        OFFSET 0.000000 -29.696600 0.000000
        CHANNELS 3 Yrotation Xrotation Zrotation
        JOINT LeftWrist
        {
         OFFSET 0.000000 -24.004700 0.000000
         CHANNELS 3 Yrotation Xrotation Zrotation
         End Site
         {
          OFFSET 0.000000 -17.728500 0.000000
         }
        }
       }
      }
     }
    }
   }
  }
 }
 JOINT RightHip
 {
  OFFSET -7.771700 -0.012900 -0.001300
  CHANNELS 3 Yrotation Xrotation Zrotation
  JOINT RightKnee
  {
   OFFSET 0.000000 -40.869800 0.001200
   CHANNELS 3 Yrotation Xrotation Zrotation
   JOINT RightAnkle
   {
    OFFSET 0.000000 -39.717900 0.002100
    CHANNELS 3 Yrotation Xrotation Zrotation
    JOINT RightToe
    {
     OFFSET 0.000000 -4.965400 11.033500
     CHANNELS 3 Yrotation Xrotation Zrotation
     End Site
     {
      OFFSET 0.000000 -1.423100 5.872300
     }
    }
   }
  }
 }
 JOINT LeftHip
 {
  OFFSET 7.771700 -0.012900 -0.001300
  CHANNELS 3 Yrotation Xrotation Zrotation
  JOINT LeftKnee
  {
   OFFSET 0.000000 -40.869800 0.001200
   CHANNELS 3 Yrotation Xrotation Zrotation
   JOINT LeftAnkle
   {
    OFFSET 0.000000 -39.717900 0.002100
    CHANNELS 3 Yrotation Xrotation Zrotation
    JOINT LeftToe
    {
     OFFSET 0.000000 -4.965400 11.033500
     CHANNELS 3 Yrotation Xrotation Zrotation
     End Site
     {
      OFFSET 0.000000 -1.423100 5.872300
     }
    }
   }
  }
 }
}
MOTION
Frames: 13
Frame Time: 0.008333
0.000000 85.388000 0.000000 0.000000 -5.767877 0.000000 0.000000 11.653817 0.000000 0.000000 -5.885947 0.000000 0.000000 -0.000000 0.000000 0.000000 -0.000000 0.000000 0.000000 12.528835 0.000000 0.000000 0.711642 0.000000 0.000000 -0.000000 0.000000 0.000000 0.000000 -90.000000 0.000000 -2.309062 0.000000 0.000000 2.309062 0.000000 0.000000 -0.000000 0.000000 0.000000 -0.000000 90.000000 0.000000 -2.309062 0.000000 0.000000 2.309062 0.000000 0.000000 8.520406 0.000000 0.000000 1.905762 0.000000 -0.000000 -4.658285 0.000000 0.000000 -0.000000 0.000000 0.000000 8.520406 0.000000 0.000000 1.905762 0.000000 -0.000000 -4.658285 0.000000 0.000000 -0.000000 0.000000
-127.190835 58.209611 105.089249 175.654551 -31.749884 -3.657584 6.119874 20.455107 0.603968 0.876441 2.699114 -0.045269 1.241623 4.512870 -0.101509 5.332621 17.395691 0.243701 -5.442919 13.530400 -1.480877 -9.694584 -10.591873 -0.647412 0.595705 -1.111517 0.897230 1.036052 -13.944652 -11.267032 152.144501 -65.962525 -135.021071 14.643987 -17.103652 -50.939812 -6.643778 -2.336193 -1.294581 12.026087 -12.833788 3.221599 152.213126 -60.241427 -178.792082 -3.857087 -4.707073 15.663166 4.248574 -42.966908 -1.207308 -10.891758 65.548326 -11.140775 8.597487 25.931711 7.040037 -0.281443 -17.683524 0.827961 -6.313626 -41.141562 3.471445 23.539888 66.295776 22.330304 -17.216362 3.212865 -2.095081 0.074159 -0.197398 0.018039
-127.195672 58.206579 105.078204 175.672989 -31.713486 -3.580798 6.143008 20.401610 0.558341 0.871173 2.685994 -0.050724 1.250963 4.485739 -0.104107 5.343111 17.354989 0.220266 -5.958610 13.512407 -1.992203 -10.466851 -10.637311 -1.408240 0.700398 -1.253622 0.937284 1.126268 -13.983495 -11.822027 153.572367 -65.557488 -136.091313 14.408230 -17.005137 -50.165321 -6.562960 -2.335490 -1.233087 12.474877 -12.982898 3.304463 152.476974 -59.179599 -178.916812 -3.842470 -4.847086 15.837764 4.304315 -43.046929 -1.292338 -10.948090 65.603366 -11.239541 8.572573 26.065066 7.073694 -0.249551 -17.825021 0.812508 -6.223545 -41.173897 3.320798 23.539051 66.278028 22.364090 -17.208948 3.197507 -2.092032 0.058202 -0.178595 0.013432
-127.198746 58.204588 105.064020 175.678143 -31.687102 -3.497296 6.170167 20.358095 0.506510 0.869513 2.674805 -0.051446 1.256202 4.457891 -0.112367 5.352529 17.319257 0.200937 -6.467349 13.497180 -2.488185 -11.231872 -10.678495 -2.142925 0.814288 -1.406816 0.971684 1.258403 -14.042377 -12.420158 155.007618 -65.213227 -137.121843 14.211737 -16.904082 -49.445790 -6.487675 -2.350112 -1.182774 12.903830 -13.138863 3.396757 152.623702 -58.207235 -178.943833 -3.826430 -4.947504 15.991319 4.376459 -43.115207 -1.374514 -11.034755 65.650508 -11.359212 8.515565 26.234426 7.078668 -0.181650 -17.994208 0.804064 -6.122754 -41.200517 3.177435 23.555582 66.270784 22.411341 -17.196837 3.158639 -2.086759 0.054790 -0.138180 0.011346
-127.196963 58.201436 105.051895 175.680254 -31.642348 -3.436080 6.206241 20.299760 0.482462 0.865344 2.656105 -0.056424 1.260108 4.440380 -0.117142 5.357256 17.277449 0.177606 -6.964271 13.487872 -2.967148 -11.980990 -10.709508 -2.850559 0.937556 -1.561913 0.998912 1.427574 -14.120363 -13.055654 156.495711 -64.941341 -138.159821 14.007543 -16.794675 -48.735830 -6.422532 -2.380949 -1.146418 13.304069 -13.292691 3.497414 152.677086 -57.335671 -178.895492 -3.800235 -5.026493 16.132886 4.457018 -43.229543 -1.420676 -11.213562 65.717617 -11.558363 8.448035 26.423264 7.093997 -0.123498 -18.180641 0.788536 -6.047494 -41.244019 3.078177 23.572501 66.267648 22.449479 -17.195355 3.140518 -2.082028 0.044988 -0.125922 0.010015
-127.194654 58.200581 105.036302 175.706547 -31.619247 -3.386291 6.217261 20.258547 0.453343 0.865371 2.639108 -0.055751 1.302542 4.374606 -0.116378 5.321695 17.285202 0.155739 -7.446372 13.489135 -3.427479 -12.708836 -10.721588 -3.529541 1.069308 -1.712907 1.023044 1.632855 -14.216239 -13.720501 158.045038 -64.752341 -139.213426 13.802482 -16.677073 -48.032237 -6.368345 -2.422137 -1.121382 13.662462 -13.441482 3.600049 152.649800 -56.569700 -178.781733 -3.767486 -5.092312 16.260240 4.521696 -43.286077 -1.492430 -11.304214 65.761110 -11.659439 8.395825 26.564906 7.150559 -0.181758 -18.325091 0.769577 -5.994550 -41.266642 2.979756 23.602630 66.264973 22.496866 -17.206861 3.131997 -2.082846 0.038672 -0.126445 0.010864
-127.192942 58.201569 105.018603 175.744532 -31.612931 -3.338473 6.221304 20.231200 0.428425 0.833850 2.646710 -0.070518 1.343153 4.312852 -0.109658 5.311436 17.263128 0.130026 -7.911958 13.504590 -3.870046 -13.411802 -10.708034 -4.182518 1.206467 -1.858172 1.049268 1.869389 -14.328374 -14.403854 159.642498 -64.637918 -140.261918 13.626059 -16.550706 -47.367481 -6.323977 -2.466425 -1.106394 13.973396 -13.590017 3.699447 152.533839 -55.912736 -178.602951 -3.739717 -5.143209 16.375843 4.586878 -43.319519 -1.572858 -11.355286 65.818460 -11.725041 8.333806 26.667171 7.214273 -0.164587 -18.448672 0.724301 -5.960432 -41.275067 2.887360 23.658159 66.266335 22.547414 -17.221253 3.127481 -2.068660 0.021338 -0.130926 0.005961
-127.187443 58.202858 105.002743 175.766381 -31.603736 -3.308843 6.286125 20.165751 0.463572 0.804071 2.645743 -0.088029 1.327341 4.303465 -0.119835 5.313014 17.224473 0.104598 -8.361377 13.536722 -4.297916 -14.089451 -10.664500 -4.815585 1.346792 -1.996450 1.077754 2.138722 -14.455752 -15.098823 161.254758 -64.581672 -141.276074 13.492062 -16.420412 -46.766463 -6.288844 -2.509115 -1.102743 14.234152 -13.744012 3.793325 152.323264 -55.372391 -178.360791 -3.719964 -5.177905 16.476290 4.643818 -43.350247 -1.623702 -11.416872 65.854075 -11.782131 8.280815 26.780044 7.260376 -0.115480 -18.569334 0.673649 -5.908130 -41.279257 2.811362 23.658499 66.259061 22.567733 -17.211791 3.125499 -2.060291 0.020763 -0.124308 0.003177
-127.187131 58.203551 104.988832 175.803536 -31.584687 -3.262668 6.285565 20.114714 0.436768 0.815852 2.619020 -0.085429 1.310724 4.294827 -0.130085 5.313318 17.185437 0.080674 -8.797820 13.586881 -4.714566 -14.746443 -10.588568 -5.434104 1.484229 -2.125762 1.105734 2.454651 -14.600243 -15.804465 162.845345 -64.579367 -142.232909 13.404142 -16.296563 -46.237724 -6.265790 -2.546945 -1.108006 14.441612 -13.905136 3.878913 152.031860 -54.953801 -178.064204 -3.696945 -5.193856 16.545871 4.707563 -43.384825 -1.712330 -11.483556 65.882146 -11.842469 8.226790 26.891590 7.308870 -0.148197 -18.682914 0.644435 -5.835988 -41.286595 2.697046 23.625769 66.241372 22.561030 -17.207123 3.112882 -2.054866 0.011762 -0.109463 0.004430
-127.186760 58.204565 104.976487 175.840701 -31.563811 -3.224838 6.303622 20.045619 0.429568 0.801425 2.615071 -0.094061 1.308145 4.273041 -0.134904 5.314517 17.145810 0.059025 -9.222955 13.654151 -5.122426 -15.384878 -10.481850 -6.041940 1.611014 -2.243860 1.133675 2.821595 -14.761571 -16.519943 164.398651 -64.624606 -143.121757 13.358536 -16.187042 -45.783231 -6.255693 -2.575132 -1.116471 14.593618 -14.072864 3.954292 151.676067 -54.657420 -177.723970 -3.664557 -5.192285 16.582294 4.751732 -43.416541 -1.787707 -11.523972 65.904442 -11.881188 8.167033 26.998178 7.366944 -0.155805 -18.789171 0.595003 -5.799518 -41.303689 2.611143 23.609204 66.234098 22.555864 -17.200257 3.113695 -2.055217 0.006102 -0.108574 0.007361
-127.193731 58.206023 104.964066 175.914138 -31.545454 -3.170431 6.236183 20.016342 0.352369 0.830013 2.572974 -0.084294 1.306094 4.251820 -0.139308 5.317765 17.106702 0.039213 -9.634003 13.735376 -5.522730 -15.999346 -10.350365 -6.642422 1.726662 -2.352915 1.163216 3.232716 -14.932418 -17.244952 165.899803 -64.707672 -143.933545 13.340137 -16.097423 -45.402928 -6.251871 -2.591614 -1.125948 14.683134 -14.244017 4.020880 151.265764 -54.478051 -177.349097 -3.629243 -5.171891 16.594505 4.792344 -43.442727 -1.903998 -11.566087 65.933049 -11.939269 8.101407 27.103436 7.438143 -0.146556 -18.899880 0.538730 -5.761330 -41.319691 2.478176 23.603992 66.221749 22.548448 -17.200575 3.119966 -2.042749 0.013176 -0.103963 0.006657
-127.199359 58.209792 104.949801 175.981779 -31.549356 -3.128683 6.228895 19.959293 0.330437 0.815029 2.573010 -0.092199 1.304738 4.231595 -0.143113 5.323388 17.068899 0.021994 -10.026447 13.827603 -5.916838 -16.581133 -10.199750 -7.239536 1.831940 -2.456151 1.192226 3.682385 -15.108889 -17.980645 167.342490 -64.830593 -144.662552 13.337406 -16.034389 -45.097475 -6.252937 -2.597922 -1.139982 14.710168 -14.412537 4.083090 150.815005 -54.406771 -176.951138 -3.596257 -5.124460 16.583981 4.817325 -43.449078 -1.984228 -11.615169 65.973396 -12.021326 8.034756 27.189234 7.530475 -0.139114 -19.004593 0.472380 -5.743384 -41.316016 2.371605 23.624336 66.213645 22.559403 -17.199022 3.132369 -2.033908 0.008896 -0.110816 0.007389
-127.200988 58.212700 104.939066 176.047312 -31.538200 -3.118842 6.238871 19.878189 0.346799 0.798156 2.575830 -0.100745 1.303626 4.211987 -0.146094 5.330097 17.031975 0.008102 -10.396459 13.929362 -6.305715 -17.122635 -10.032827 -7.836338 1.925207 -2.555704 1.216923 4.165548 -15.293605 -18.724169 168.740407 -65.005299 -145.315859 13.345084 -16.002109 -44.863258 -6.262559 -2.596256 -1.161791 14.685413 -14.573431 4.145836 150.341363 -54.438049 -176.542915 -3.563126 -5.048080 16.545004 4.805348 -43.468256 -2.027535 -11.661859 65.992633 -12.080785 7.984521 27.280726 7.611461 -0.139858 -19.098146 0.401221 -5.755213 -41.324247 2.316762 23.665475 66.198512 22.569254 -17.195148 3.175030 -1.995221 -0.018928 -0.139706 -0.004918
